<svg xmlns="http://www.w3.org/2000/svg" viewBox="0 0 1743 919"><title>container</title><rect x="3" y="3" width="1737" height="913" style="fill:#fff"/><path d="M1737.5,6.5v907H6.5V6.5h1731m6-6H.5v919h1743V.5Z" transform="translate(-0.5 -0.5)" style="fill:#fab217"/><polygon points="1638.24 916 1740 814.24 1740 916 1638.24 916" style="fill:#fff"/><path d="M1737.5,822V913.5H1646L1737.5,822m6-14.49-112,112h112v-112Z" transform="translate(-0.5 -0.5)" style="fill:#fab217"/><polygon points="1638.24 3 1740 3 1740 104.76 1638.24 3" style="fill:#fff"/><path d="M1737.5,6.5V98L1646,6.5h91.51m6-6h-112l112,112V.5Z" transform="translate(-0.5 -0.5)" style="fill:#fab217"/><polygon points="3 3 104.76 3 3 104.76 3 3" style="fill:#fff"/><path d="M98,6.5,6.5,98V6.5H98M112.5.5H.5v112L112.5.5Z" transform="translate(-0.5 -0.5)" style="fill:#fab217"/><polygon points="3 916 3 814.24 104.76 916 3 916" style="fill:#fff"/><path d="M6.5,822,98,913.5H6.5V822M.5,807.5v112h112L.5,807.5Z" transform="translate(-0.5 -0.5)" style="fill:#fab217"/></svg>